<?xml version="1.0" encoding="UTF-8" standalone="no"?>
<!-- Created with Inkscape (http://www.inkscape.org/) -->

<svg
   xmlns:dc="http://purl.org/dc/elements/1.1/"
   xmlns:cc="http://creativecommons.org/ns#"
   xmlns:rdf="http://www.w3.org/1999/02/22-rdf-syntax-ns#"
   xmlns:svg="http://www.w3.org/2000/svg"
   xmlns="http://www.w3.org/2000/svg"
   xmlns:sodipodi="http://sodipodi.sourceforge.net/DTD/sodipodi-0.dtd"
   xmlns:inkscape="http://www.inkscape.org/namespaces/inkscape"
   width="46.822006mm"
   height="17.197916mm"
   viewBox="0 0 46.822006 17.197916"
   version="1.1"
   id="svg74"
   inkscape:version="0.92.3 (2405546, 2018-03-11)"
   sodipodi:docname="logo-muni-letras-blancas.svg">
  <defs
     id="defs68" />
  <sodipodi:namedview
     id="base"
     pagecolor="#ffffff"
     bordercolor="#666666"
     borderopacity="1.0"
     inkscape:pageopacity="0.0"
     inkscape:pageshadow="2"
     inkscape:zoom="2.8"
     inkscape:cx="84.390087"
     inkscape:cy="42.751093"
     inkscape:document-units="mm"
     inkscape:current-layer="layer1"
     showgrid="false"
     fit-margin-top="0"
     fit-margin-left="0"
     fit-margin-right="0"
     fit-margin-bottom="0"
     inkscape:window-width="1299"
     inkscape:window-height="713"
     inkscape:window-x="67"
     inkscape:window-y="27"
     inkscape:window-maximized="1" />
  <metadata
     id="metadata71">
    <rdf:RDF>
      <cc:Work
         rdf:about="">
        <dc:format>image/svg+xml</dc:format>
        <dc:type
           rdf:resource="http://purl.org/dc/dcmitype/StillImage" />
        <dc:title></dc:title>
      </cc:Work>
    </rdf:RDF>
  </metadata>
  <g
     inkscape:label="Capa 1"
     inkscape:groupmode="layer"
     id="layer1"
     transform="translate(-4.4425545,-3.3324585)">
    <g
       id="g110"
       transform="matrix(0.47574382,0,0,0.47574382,-25.644365,-4.7493469)">
      <g
         id="_483122984"
         style="clip-rule:evenodd;fill-rule:evenodd;image-rendering:optimizeQuality;shape-rendering:geometricPrecision;text-rendering:geometricPrecision"
         transform="matrix(0.00607147,0,0,0.00607147,15.167951,15.779503)">
        <path
           class="fil0"
           d="m 10894,199 c 1644,0 2977,1333 2977,2976 0,1645 -1333,2978 -2977,2978 C 9250,6153 7918,4820 7918,3175 7918,1532 9250,199 10894,199 Z"
           id="path7"
           inkscape:connector-curvature="0"
           style="fill:#ec268f" />
        <path
           class="fil1"
           d="m 10894,1398 c 609,0 1145,305 1465,770 l -321,304 -249,236 c -169,-322 -506,-542 -895,-542 -557,0 -1009,452 -1009,1009 0,559 452,1011 1009,1011 389,0 726,-220 895,-542 l 249,236 321,304 c -320,465 -856,770 -1465,770 -981,0 -1777,-796 -1777,-1779 0,-981 796,-1777 1777,-1777 z"
           id="path9"
           inkscape:connector-curvature="0"
           style="fill:#fefefe" />
        <polygon
           class="fil2"
           points="12748,2651 13273,3175 12748,3701 12224,3175 "
           id="polygon11"
           style="fill:#00afef" />
      </g>
      <g
         id="_483124832"
         style="clip-rule:evenodd;fill-rule:evenodd;image-rendering:optimizeQuality;shape-rendering:geometricPrecision;text-rendering:geometricPrecision"
         transform="matrix(0.00607147,0,0,0.00607147,15.167951,15.779503)">
        <path
           class="fil3"
           d="m 14811,2232 h 145 l 48,-648 c 5,-63 3,-155 3,-155 h 3 c 0,0 33,99 56,155 l 205,463 h 127 l 207,-463 c 24,-57 55,-153 55,-153 h 3 c 0,0 -3,90 2,153 l 51,648 h 142 l -83,-1029 h -151 l -237,557 c -24,57 -50,138 -50,138 h -3 c 0,0 -28,-81 -52,-138 l -237,-557 h -151 z m 1256,-265 c 0,195 86,283 252,283 145,0 241,-97 271,-170 h 3 c 0,0 -3,24 -3,54 v 98 h 138 v -738 h -142 v 346 c 0,146 -89,278 -239,278 -118,0 -139,-82 -139,-183 v -441 h -141 z m 882,265 h 142 v -345 c 0,-37 3,-70 12,-100 30,-106 121,-180 233,-180 118,0 140,81 140,185 v 440 h 142 v -472 c 0,-188 -80,-283 -254,-283 -160,0 -248,105 -277,168 h -3 c 0,0 3,-23 3,-53 v -98 h -138 z m 879,-885 h 143 v -144 h -143 z m 1,885 h 142 v -738 h -142 z m 311,-369 c 0,222 163,387 395,387 193,0 294,-118 294,-118 l -56,-104 c 0,0 -90,99 -228,99 -152,0 -261,-114 -261,-265 0,-152 109,-262 257,-262 126,0 205,84 205,84 l 66,-99 c 0,0 -91,-108 -277,-108 -232,0 -395,167 -395,386 z m 849,-516 h 143 v -144 h -143 z m 1,885 h 142 v -738 h -142 z m 364,292 h 141 v -331 c 0,-38 -3,-64 -3,-64 h 3 c 0,0 64,121 226,121 193,0 334,-152 334,-387 0,-228 -125,-386 -324,-386 -184,0 -247,134 -247,134 h -3 c 0,0 3,-25 3,-54 v -63 h -130 z m 137,-658 c 0,-188 101,-265 213,-265 122,0 209,103 209,264 0,167 -97,264 -214,264 -136,0 -208,-131 -208,-263 z m 678,159 c 0,147 124,225 251,225 177,0 237,-146 237,-146 h 3 c 0,0 -3,25 -3,58 v 70 h 130 v -467 c 0,-186 -104,-288 -291,-288 -170,0 -276,88 -276,88 l 59,102 c 0,0 91,-70 205,-70 94,0 162,40 162,161 v 13 h -32 c -124,0 -445,10 -445,254 z m 143,-7 c 0,-133 193,-140 299,-140 h 37 v 23 c 0,110 -78,235 -198,235 -92,0 -138,-59 -138,-118 z m 679,13 c 0,185 117,207 198,207 24,0 46,-3 46,-3 v -125 c 0,0 -11,1 -25,1 -43,0 -79,-16 -79,-104 v -804 h -140 z m 393,-684 h 143 v -144 h -143 z m 2,885 h 141 v -738 h -141 z m 315,-369 c 0,229 126,387 325,387 183,0 242,-137 242,-137 h 3 c 0,0 -2,20 -2,49 v 70 h 135 V 1203 h -142 v 341 c 0,28 3,50 3,50 h -3 c 0,0 -56,-117 -227,-117 -195,0 -334,152 -334,386 z m 144,0 c 0,-168 96,-263 213,-263 141,0 208,130 208,262 0,188 -102,265 -212,265 -123,0 -209,-104 -209,-264 z m 721,162 c 0,147 124,225 251,225 176,0 236,-146 236,-146 h 3 c 0,0 -3,25 -3,58 v 70 h 131 v -467 c 0,-186 -105,-288 -291,-288 -170,0 -277,88 -277,88 l 59,102 c 0,0 92,-70 206,-70 94,0 162,40 162,161 v 13 h -33 c -123,0 -444,10 -444,254 z m 143,-7 c 0,-133 193,-140 298,-140 h 37 v 23 c 0,110 -77,235 -196,235 -93,0 -139,-59 -139,-118 z m 639,-155 c 0,229 125,387 325,387 182,0 242,-137 242,-137 h 3 c 0,0 -1,20 -1,49 v 70 h 134 V 1203 h -142 v 341 c 0,28 3,50 3,50 h -3 c 0,0 -57,-117 -227,-117 -196,0 -334,152 -334,386 z m 144,0 c 0,-168 97,-263 214,-263 139,0 208,130 208,262 0,188 -104,265 -213,265 -123,0 -209,-104 -209,-264 z"
           id="path14"
           inkscape:connector-curvature="0"
           style="fill:#e6e6e6" />
        <path
           class="fil3"
           d="m 14766,3312 c 0,245 134,414 348,414 195,0 258,-147 258,-147 h 3 c 0,0 -1,22 -1,53 v 75 h 144 V 2606 h -152 v 365 c 0,29 3,53 3,53 h -3 c 0,0 -60,-125 -243,-125 -209,0 -357,163 -357,413 z m 155,0 c 0,-179 102,-282 227,-282 150,0 223,140 223,281 0,202 -110,284 -228,284 -131,0 -222,-110 -222,-283 z m 780,0 c 0,234 169,414 417,414 190,0 307,-113 307,-113 l -63,-110 c 0,0 -98,92 -234,92 -140,0 -264,-87 -272,-261 h 577 c 0,0 4,-45 4,-65 0,-204 -119,-370 -341,-370 -226,0 -395,163 -395,413 z m 160,-92 c 22,-129 116,-201 232,-201 100,0 185,66 189,201 z m 1097,-72 c 0,330 236,578 586,578 291,0 449,-187 449,-187 l -140,-200 c 0,0 -129,138 -297,138 -206,0 -315,-171 -315,-336 0,-161 101,-319 315,-319 154,0 279,114 279,114 l 127,-205 c 0,0 -142,-158 -418,-158 -336,0 -586,249 -586,575 z m 1172,-346 h 264 v -210 h -264 z m -3,905 h 271 v -804 h -271 z m 470,312 h 270 v -301 c 0,-40 -4,-69 -4,-69 h 4 c 0,0 73,77 205,77 213,0 374,-166 374,-420 0,-249 -144,-421 -362,-421 -171,0 -244,111 -244,111 h -3 c 0,0 3,-25 3,-52 v -41 h -243 z m 262,-708 c 0,-139 76,-198 158,-198 94,0 157,77 157,198 0,123 -73,192 -157,192 -107,0 -158,-95 -158,-192 z m 673,-3 c 0,251 202,418 455,418 253,0 456,-167 456,-418 0,-253 -203,-423 -458,-423 -251,0 -453,170 -453,423 z m 273,0 c 0,-122 84,-198 182,-198 99,0 183,76 183,198 0,120 -84,194 -183,194 -98,0 -182,-74 -182,-194 z m 768,103 c 0,270 152,304 296,304 44,0 81,-5 81,-5 v -233 c 0,0 -15,1 -33,1 -61,0 -75,-26 -75,-103 v -783 h -269 z m 504,0 c 0,270 152,304 296,304 44,0 82,-5 82,-5 v -233 c 0,0 -16,1 -33,1 -61,0 -75,-26 -75,-103 v -783 h -270 z m 457,-106 c 0,214 154,421 441,421 215,0 344,-117 344,-117 l -100,-189 c 0,0 -106,82 -222,82 -86,0 -166,-46 -186,-144 h 506 c 0,0 6,-58 6,-85 0,-222 -133,-388 -371,-388 -259,0 -418,184 -418,420 z m 283,-102 c 14,-59 50,-115 129,-115 64,0 106,55 106,115 z m 694,208 c 0,270 248,304 376,304 44,0 74,-5 74,-5 v -233 c 0,0 -14,1 -36,1 -52,0 -144,-12 -144,-103 v -246 h 169 v -211 h -169 v -231 h -262 v 231 h -111 v 211 h 103 z m 647,0 c 0,270 248,304 376,304 44,0 74,-5 74,-5 v -233 c 0,0 -14,1 -36,1 -52,0 -144,-12 -144,-103 v -246 h 169 v -211 h -169 v -231 h -262 v 231 h -111 v 211 h 103 z m 610,-609 h 265 v -210 h -265 z m -3,905 h 271 v -804 h -271 z"
           id="path16"
           inkscape:connector-curvature="0"
           style="fill:#e6e6e6" />
        <g
           id="g20">
          <polygon
             class="fil4"
             points="24074,4316 14863,4316 14863,4268 24074,4268 "
             id="polygon18"
             style="fill:#00afef;fill-rule:nonzero" />
        </g>
        <path
           class="fil0"
           d="m 17023,4905 c 0,143 94,244 249,244 132,0 226,-82 226,-82 l -34,-62 c 0,0 -83,72 -188,72 -108,0 -171,-76 -171,-176 0,-137 112,-261 254,-261 99,0 154,57 154,57 l 47,-55 c 0,0 -61,-75 -204,-75 -175,0 -333,153 -333,338 z m 552,235 h 76 l 28,-147 c 19,-94 86,-186 160,-186 10,0 16,1 22,2 l 15,-76 c -5,-1 -14,-2 -24,-2 -64,0 -119,50 -146,108 h -1 c 0,0 5,-16 8,-33 l 14,-70 h -75 z m 308,-163 c 0,100 73,172 190,172 88,0 155,-53 155,-53 l -23,-60 c 0,0 -59,46 -128,46 -75,0 -115,-49 -115,-109 0,-8 1,-16 3,-24 h 294 c 0,0 13,-40 13,-73 0,-87 -50,-150 -155,-150 -135,0 -234,117 -234,251 z m 95,-86 c 24,-64 79,-103 138,-103 45,0 78,27 78,81 0,13 -1,22 -1,22 z m 347,83 c 0,103 74,175 190,175 99,0 164,-60 164,-60 l -21,-60 c 0,0 -61,53 -136,53 -72,0 -119,-46 -119,-113 0,-98 84,-176 175,-176 67,0 105,42 105,42 l 44,-50 c 0,0 -47,-59 -153,-59 -134,0 -249,111 -249,248 z m 525,-318 h 79 l 16,-79 h -80 z m -93,484 h 77 l 79,-404 h -78 z m 208,-163 c 0,100 73,172 192,172 86,0 153,-53 153,-53 l -22,-60 c 0,0 -60,46 -128,46 -76,0 -115,-49 -115,-109 0,-8 0,-16 2,-24 h 294 c 0,0 13,-40 13,-73 0,-87 -50,-150 -154,-150 -135,0 -235,117 -235,251 z m 95,-86 c 25,-64 80,-103 138,-103 46,0 78,27 78,81 0,13 -1,22 -1,22 z m 341,249 h 78 l 35,-184 c 17,-85 85,-159 167,-159 37,0 60,19 60,59 0,13 -2,29 -6,45 l -46,239 h 78 l 49,-255 c 3,-19 6,-36 6,-52 0,-73 -47,-107 -119,-107 -81,0 -145,55 -166,95 h -2 c 0,0 8,-19 12,-38 l 7,-47 h -75 z m 491,-155 c 0,99 54,164 152,164 61,0 111,-36 138,-76 h 2 c 0,0 -5,12 -7,28 l -8,39 h 74 l 109,-563 h -77 l -37,188 c -3,14 -3,29 -3,29 h -2 c -19,-46 -68,-68 -118,-68 -117,0 -223,105 -223,259 z m 78,-6 c 0,-116 80,-185 150,-185 63,0 90,47 90,103 0,92 -63,185 -148,185 -57,0 -92,-38 -92,-103 z m 402,-7 c 0,105 79,177 193,177 125,0 249,-105 249,-246 0,-105 -80,-177 -191,-177 -128,0 -251,107 -251,246 z m 79,-3 c 0,-100 85,-176 171,-176 66,0 112,47 112,114 0,100 -85,175 -168,175 -67,0 -115,-45 -115,-113 z m 662,-8 c 0,105 69,188 205,188 106,0 177,-60 177,-60 l -35,-104 c 0,0 -64,50 -122,50 -60,0 -85,-39 -85,-82 0,-54 46,-119 124,-119 54,0 91,32 91,32 l 69,-86 c 0,0 -51,-61 -167,-61 -157,0 -257,125 -257,242 z m 443,4 c 0,112 90,184 214,184 127,0 256,-100 256,-245 0,-112 -90,-185 -213,-185 -129,0 -257,102 -257,246 z m 140,-6 c 0,-75 61,-125 115,-125 43,0 75,30 75,79 0,75 -59,122 -114,122 -44,0 -76,-28 -76,-76 z m 362,181 h 138 l 35,-182 c 11,-60 57,-113 112,-113 24,0 36,10 36,35 0,5 0,14 -2,24 l -46,236 h 138 l 50,-259 c 4,-16 6,-32 6,-45 0,-86 -58,-117 -130,-117 -56,0 -114,34 -137,71 h -2 c 0,0 7,-20 11,-41 l 4,-20 h -133 z m 847,0 h 159 l 221,-411 h -147 l -106,219 c -14,27 -29,71 -29,71 h -2 c 0,0 0,-58 -1,-71 l -20,-219 h -137 z m 361,-175 c 0,112 89,184 212,184 128,0 257,-100 257,-245 0,-112 -89,-185 -213,-185 -129,0 -256,102 -256,246 z m 139,-6 c 0,-75 61,-125 115,-125 43,0 75,30 75,79 0,75 -59,122 -114,122 -44,0 -76,-28 -76,-76 z m 342,130 c 0,0 69,60 172,60 103,0 173,-53 173,-132 0,-124 -164,-132 -164,-164 0,-16 25,-22 45,-22 62,0 96,30 96,30 l 59,-95 c 0,0 -56,-47 -155,-47 -88,0 -173,54 -173,134 0,121 164,128 164,164 0,15 -24,21 -45,21 -62,0 -104,-37 -104,-37 z"
           id="path22"
           inkscape:connector-curvature="0"
           style="fill:#ec268f" />
      </g>
    </g>
  </g>
</svg>
